<svg id="Layer_1" data-name="Layer 1" xmlns="http://www.w3.org/2000/svg" viewBox="0 0 675.42 681.07"><defs><style>.cls-1{fill:#e66825;}.cls-2{fill:#fff;}</style></defs><title>Maqrom</title><path class="cls-1" d="M.52-.81,675.42,0V680.26H0Z" transform="translate(0 0.81)"/><path class="cls-2" d="M567.93,513.07c-29.66,0-58.25-.2-86.84.17-5.91.07-8.19-3.23-8.85-7.4-3.58-22.58-6.46-45.26-10-67.85-4.5-28.76-9.56-57.43-14.06-86.2-2.86-18.3-5.15-36.7-7.63-55.06-.37-2.71.74-5.87-3.85-7.54-24,41.71-48.2,83.87-73.06,127.11h12.62c17.28,0,17.77,0,18.07-17,.13-7.39,3.82-8.29,8.91-7s16-4.62,14.92,5c-2.53,22.83-.73,46.81-13.05,67.82-9,15.39-21.24,26-40.14,26.15-20.82.15-37.07-8-48.68-25.84-6.1-9.38-9.13-19.78-12.6-30.05-5-14.71,4.91-25.66,10.92-37.36,15.43-30,31.17-59.9,46.76-89.85,22.85-43.91,45.79-87.79,68.42-131.82,3.29-6.41,7.1-9.61,14.69-9.4,17.32.5,34.65.28,52,.09,5.61-.06,8.41.08,9.93,7.59,6.92,34.27,12.73,68.73,18.83,103.15q8.44,47.6,17.07,95.16c5.5,30.13,11.22,60.23,16.76,90.35C562,479.55,564.86,495.85,567.93,513.07Z" transform="translate(0 0.81)"/><path class="cls-2" d="M289,403.53,230.53,286.76c-3.66,25.74-7,48.61-10.15,71.5-2.78,19.94-5.39,39.9-8.16,59.85-2.88,20.71-6.14,41.37-8.65,62.13-1,8.25-3.27,16.3-2.91,24.84.2,4.75-2.72,8.25-9.18,8.16-27.42-.39-54.84-.51-82.25,0-8.64.17-8.18-4.64-7.21-9.83,10.29-55.23,21.25-110.35,31.05-165.67,7.81-44.12,15.36-88.28,24-132.26,1.81-9.23,4.63-18.64,4.71-27.85.09-9.76,3.59-11,11.87-10.73,17.72.56,35.48.26,53.22.1,4.22,0,7.2.3,9.38,5q34.23,73,69,145.84c1,2.14,2.22,4.19,3.27,6.31,12.87,26.06,12.88,26.08-1.4,49.78C301.21,383.66,295.25,393.35,289,403.53Z" transform="translate(0 0.81)"/></svg>